<?xml version="1.0" encoding="UTF-8"?>
<svg id="Ebene_2" xmlns="http://www.w3.org/2000/svg" viewBox="0 0 1295.5 165.05">
  <defs>
    <style>
      .cls-1 {
        fill: #000000;
      }
    </style>
  </defs>
  <g id="Ebene_1-2" data-name="Ebene_1">
    <g>
      <path class="cls-1" d="M349.75,143.73c-9.39,0-18.78-.07-28.17,0-3.48.03-6.78,1.13-10.28,1.33-4.44.25-9.04.32-13.47-.12-16.03-1.62-31.99-9.91-42.85-21.77-10.65-11.63-17.82-27-18.21-42.94-.4-16.49,6.59-33.37,17.84-45.31,11.12-11.81,26.02-20.51,42.39-22.04,16.89-1.58,32.48,2.05,46.58,11.55,13.29,8.96,23.84,22.7,27.81,38.37,4.03,15.94,1.52,33.65-6.68,47.83-2.27,3.93-5.03,7.49-7.9,10.99-.72.88-3.9,3.61-3.96,4.38-.17,1.95,1.65.24,2.65-.23,3.5-1.61,7.99-3.97,11.82-4.12,2.14-.09,4.29-.06,6.43-.09,1.2-.02,6.13-.81,7.14.04,1.16.97.35,5.02.33,6.3-.03,2.16-.03,4.31-.02,6.47,0,2.46.43,5.33.01,7.76-.27,1.58-.05,1.42-1.71,1.65-4.52.65-9.65,0-14.23,0-5.17,0-10.35,0-15.52,0v-.05ZM304.68,117.43c17.55.55,36.11-14.05,39.19-31.46,1.45-8.2.68-15.82-3.14-23.32-3.66-7.19-9.39-13.09-16.31-17.25-7.21-4.34-15.55-5.86-23.89-4.99-7.71.8-14.2,4.46-20.27,9.03-5.91,4.44-10.24,11.03-12.85,17.93-2.93,7.74-2.18,15.76.59,23.41,5.34,14.75,20.76,26.52,36.67,26.65Z"/>
      <path class="cls-1" d="M1227.32,12.7c7.48,0,14.23.61,21.38,3.07,6.57,2.27,12.89,5.54,18.52,9.61,10.7,7.74,19.33,18.5,24.13,30.82,10.43,26.75.39,56.08-21.36,73.84-22.08,18.02-52.63,19.74-77.18,5.65-24.1-13.84-37.72-42.27-32.38-69.63,5.87-30.12,36.1-54.74,66.9-53.35ZM1227.4,117.46c9.06.71,17.75-4.29,24.7-9.46,6.8-5.05,11.65-13.25,13.9-21.37,4.34-15.69-5.15-32.69-18.59-40.68-14.59-8.67-32.95-7.24-45.74,4.12-11.92,10.58-17.06,26.51-11.23,41.7,5.72,14.91,21.14,25.26,36.95,25.69Z"/>
      <path class="cls-1" d="M1050.91,14.13c17.34,0,35.93-2.26,49.82,10.33,12.08,10.95,16.48,29.27,11.52,44.79-2.48,7.76-7.55,15.26-14.24,19.98-3.19,2.25-6.77,3.83-10.38,5.27-1.26.5-2.55.62-2.64,2.1-.09,1.35,2.68,3.92,3.53,5.03,9.96,12.93,20.35,25.62,30.69,38.25.48.58,3.1,3.07,2.75,3.79-.4.84-4.16.14-4.87.13-4.89-.11-9.78-.11-14.67-.09-4.44.02-8.89.15-13.34.1-4.44-.05-5.44-2.96-7.74-6.41-5.11-7.65-10.51-15.1-15.58-22.77-2.18-3.3-4.47-6.53-6.68-9.82-1.08-1.61-2.44-3.15-3.42-4.81-.83-1.41-1.12-3.25-2.17-1.1-.64,1.32-.08,5.17-.1,6.65-.03,2.21-.04,4.42-.04,6.63,0,4.8,0,9.59.02,14.39,0,4.58.02,9.16.04,13.73,0,1.54.4,2.83-1.14,3.42-1.91.73-5.44.03-7.5.03-4.56,0-9.11,0-13.67-.02-1.54,0-4.66.6-5.98-.06-1.65-.82-.95-2.4-.87-4.15.38-9.25.02-18.59.03-27.86.02-21.34.02-42.67.01-64.01,0-10.35-.03-20.7-.11-31.05-.02-2.38.19-2.51,2.64-2.54,2.68-.03,5.35.01,8.03.01,5.35,0,10.71,0,16.06,0v.04ZM1053.32,55.88c.1,6.17-.13,12.08.12,17.98.05,1.26.55,1.57,1.66,1.58,4.2.05,8.4-.15,12.59-.09,3.91.07,7.4-1.11,10.65-3.03,4.55-2.68,7.19-6.87,8.17-11.95.59-3.04.58-6.23.07-9.29-.77-4.59-3.11-8.34-6.87-11.23-3.41-2.62-7.16-3.86-11.45-3.77-4.11.08-8.23,0-12.35,0-2.47,0-2.41,0-2.5,2.45-.21,5.87.03,11.74-.08,17.34Z"/>
      <path class="cls-1" d="M752.42,78.83c0-18.93.07-37.86,0-56.79,0-2.11-1.17-7.07,1-7.98,1.5-.63,4.34-.01,6.01,0,2.62,0,5.24,0,7.86.01,9.45.01,18.91.02,28.36.03,8.41.01,16.6.6,24.27,4.41,6.79,3.37,12.9,8.94,16.69,15.52,8.25,14.33,7.74,34.1-2.58,47.33-5.23,6.71-11.59,10.29-19.26,13.49-1.74.73-2.13.87-1.3,2.69.75,1.63,2.43,3.22,3.53,4.64,2.72,3.51,5.53,6.97,8.36,10.39,5.38,6.52,10.42,13.34,15.92,19.76,2.53,2.95,4.98,6.05,7.27,9.19,1.24,1.71,1.51,2.17-.6,2.3-2.64.16-5.37-.08-8.02-.09-4.68-.02-9.36.02-14.04.02-2.23,0-4.47,0-6.7-.02-1.95-.01-4.37.48-5.93-.87-1.26-1.09-2.12-3.21-3.07-4.56-1.04-1.49-2.14-2.92-3.14-4.44-2.35-3.57-4.87-7.04-7.29-10.57-4.98-7.27-9.99-14.52-15.07-21.72-.51-.72-1.93-4.25-2.92-4.06-1.26.24-.8,3.55-.81,4.35-.04,4.78,0,9.56,0,14.33,0,5.21,0,10.42,0,15.64,0,2.61,0,5.21.01,7.82,0,1.92.55,3.6-1.51,4.16-2.29.62-5.65-.02-7.99-.03-2.66,0-5.33,0-7.99-.01-2.66,0-5.33.02-7.99,0-2.01-.02-2.51.27-3.08-1.56-.68-2.19,0-5.63,0-7.92,0-2.64,0-5.28,0-7.92,0-5.28,0-10.56,0-15.85,0-10.56,0-21.13,0-31.69,0,0,0,0,0,0ZM781.01,55.46s-.04,0-.06,0c0,3.54,0,7.08,0,10.61,0,1.87-.78,6.24.1,7.98.78,1.55,2.12,1.25,3.75,1.27,3.36.04,6.72.01,10.07-.02,11.1-.11,20.17-7.82,20.53-19.37.33-10.68-8.04-19.61-18.64-19.79-3.33-.06-6.66-.05-9.99-.05-1.59,0-4.58-.64-5.63.67-.93,1.17-.11,6.45-.11,8.01,0,3.56,0,7.12,0,10.69Z"/>
      <path class="cls-1" d="M423.02,56.68c0-11.27,0-22.54,0-33.81,0-2.24-.62-5.52,0-7.66.55-1.84,2.33-1.18,4.18-1.18,5.52.02,11.05.03,16.57.04,1.55,0,5.59-.76,6.89.06,1.31.82.79,2.76.79,4.28,0,5.75,0,11.5-.01,17.25,0,11.06-.02,22.12-.02,33.18,0,10.25-1.1,21.13,1.35,31.15,1.15,4.7,2.71,8.71,6.46,11.96,3.29,2.86,8.34,4.34,12.57,5.11,8.91,1.62,21.84.18,27.32-7.97,5.79-8.61,4.51-19.9,4.47-29.72-.05-11.26-.11-22.52-.17-33.78-.03-5.52-.06-11.04-.09-16.56-.01-2.65-.03-5.3-.04-7.95,0-1.48-.7-4.8.1-6.15.62-1.06,1.73-.83,2.89-.86,2.9-.05,5.81,0,8.71,0,2.68,0,5.36,0,8.04,0,2.26,0,6.37-.82,8.45.03,1.78.73.88,3.32.81,5.07-.11,2.79-.13,5.59-.16,8.38-.06,5.45-.15,10.9-.19,16.35-.08,11.18-.03,22.36-.02,33.54,0,5.48.03,10.96-.02,16.44-.05,5.33.08,10.77-1.42,15.92-1.33,4.59-2.8,8.73-5.13,12.94-2.13,3.85-5.32,6.93-8.55,9.88-6.25,5.71-14.33,9.66-22.59,11.06-18.83,3.2-41.83,2.49-56.57-11.58-16.21-15.47-14.61-38.09-14.61-58.65,0-5.59,0-11.18,0-16.77h-.02Z"/>
      <path class="cls-1" d="M640.81,117.21c-4.42,0-8.84,0-13.26,0-2.21,0-4.42,0-6.63,0-1.3,0-4.55-.68-5.67.41-.56.55-1.22,3.06-1.5,3.72-.79,1.84-1.43,3.74-2.1,5.63-1.28,3.61-2.78,7.15-3.95,10.76-.86,2.65-1.23,5.84-4.28,5.99-4.4.22-8.86.02-13.27.03-4.1,0-8.21.03-12.31.02-4.88-.01-2.08-2.97-1.05-5.88,2.3-6.48,5.35-13.24,8.1-19.67,2.77-6.47,5.79-12.88,8.37-19.45,5.34-13.61,10.98-27.2,16.84-40.61,2.87-6.58,5.85-13.16,8.27-19.93,2.51-7.04,6.32-13.68,8.88-20.72.68-1.88.22-2.99,2.23-3.43,1.74-.37,3.88-.02,5.67-.02,4.73,0,9.46,0,14.19,0,2.05,0,3.08-.3,4.36,1.2,1.15,1.36,1.73,3.86,2.39,5.54,1.59,3.99,3.38,7.89,4.84,11.93,5.47,15.2,13.14,29.67,18.78,44.8,2.93,7.85,6.41,15.57,9.78,23.24,3.48,7.9,6.41,16.01,9.75,23.96,1.66,3.95,3.44,7.85,5.01,11.83.53,1.34,2.63,4.53,2.42,6.02-.26,1.82-2.71,1.16-4.36,1.16-4.99,0-9.98,0-14.97,0-2.62,0-9.15,1.22-11.22-.77-1.06-1.02-1.59-3.81-2.05-5.14-.76-2.16-1.58-4.28-2.43-6.41-1.56-3.9-2.63-8.02-4.3-11.87-1.01-2.34-1.74-2.35-4.08-2.35-2.59,0-5.18,0-7.77,0-4.89,0-9.79,0-14.68,0ZM640.04,94.63c3.37-.01,6.74,0,10.1-.07,1.39-.03,6.73.55,7.46-.88.25-.5-.77-2.3-1.01-2.92-.4-1.04-.84-2.06-1.31-3.15-.95-2.2-1.8-4.69-2.58-6.96-2.49-7.29-5.48-14.49-7.8-21.83-.69-2.18-1.71-4.26-2.45-6.42-.52-1.51-1.61-4.33-3.05-1.56-.88,1.69-1.2,4.12-1.91,5.92-.22.55-6.44,17.41-7.07,19.3-.7,2.1-1.7,4.14-2.41,6.27-.87,2.58-2.15,5.03-2.93,7.64-.33,1.1-1.58,3.2-.99,4.01.9,1.23,6.04.65,7.4.66,2.85.03,5.7-.05,8.55-.02Z"/>
      <path class="cls-1" d="M891.59,78.83c0-21.09,0-42.17-.01-63.26,0-1.03.25-1.52,1.41-1.52,23.47.03,46.94.02,70.41.03,1.32,0,2.64.05,3.96,0,.98-.04,1.38.34,1.38,1.32-.05,7.39-.1,14.78-.1,22.16,0,1.24-.59,1.47-1.63,1.47-6.84,0-13.67.04-20.51.05-7.84.01-15.67.01-23.51.02-1.86,0-2.31.35-2.4,2.19-.34,7.34-.28,14.69-.13,22.04.04,1.95.64,2.44,2.58,2.44,13.43,0,26.87,0,40.3,0,3.3,0,3.21-.01,3.17,3.21-.08,6.15-.05,12.3-.06,18.45,0,.72-.02,1.44,0,2.16,0,.84-.41,1.2-1.23,1.3-2.03.23-4.07.24-6.11.22-11.36-.11-22.71-.14-34.07-.04-.64,0-1.28-.04-1.92-.05-1.98-.05-2.54.44-2.6,2.4-.09,3.23-.17,6.47-.18,9.7,0,4.23.04,8.47.1,12.7.03,2.04.63,2.66,2.68,2.66,14.83,0,29.67.13,44.5-.11.98-.02,1.05.45,1.05,1.15,0,2.48-.01,4.95-.01,7.43,0,5.15-.03,10.3.03,15.45.01,1.27-.6,1.43-1.63,1.43-16.43-.03-32.87-.04-49.3-.05-8.12,0-16.23,0-24.35,0-1.5,0-1.81-.26-1.81-1.55,0-21.13,0-42.25,0-63.38,0,0,0,0-.01,0Z"/>
      <path class="cls-1" d="M41.66,66.05c5.68-.12,11.34-.2,17,.41,5.9.64,11.83,1.78,17.73,2.15,5.78.36,11.58,1.79,17.23,3.01,6.24,1.35,12.6,2.19,18.8,3.57,12.64,2.8,24.86,5.03,37.84,5.44,6.36.2,12.66-.21,19-.64.96-.06,5.4-.92,3.64,1.13-1.33,1.55-6.03,2.11-7.96,2.58-5.7,1.36-11.32,3.03-17.01,4.4-6.04,1.46-12.43,1.15-18.6,1-12.78-.32-25.6-1.88-38.3-3.27-25.39-2.78-50.42-.89-75.52,3.35-3.38.57-6.7,1.09-10.13,1.24-3.14.13-5.05.93-5.27-2.69-.2-3.34-.13-6.74-.04-10.09.06-2.07-.6-7.54,1.16-8.87.83-.63,3.05-.32,4.07-.38,1.88-.12,3.75-.28,5.63-.45,3.33-.31,6.66-.66,10-.87,6.86-.43,13.84-1.17,20.71-.99Z"/>
      <path class="cls-1" d="M70.14,96.67c11.95-.05,23.66,1.68,35.54,2.56,12.59.93,25.18,2.74,37.68.38,2.61-.49,5.12-.87,7.68-1.64,3.03-.91,6.22-1.04,9.21-1.94,2.43-.73,4.66-2.19,6.95-3.23.62-.28,5.62-2.94,5.38-1.16-.17,1.28-4.9,3.43-5.95,4-2.54,1.36-4.79,3.02-7.22,4.55-4.75,2.99-9.86,5.92-14.98,8.26-11.32,5.18-24.71,4.3-36.89,4.67-12.58.38-25.28.14-37.82,1.23-11.66,1.01-23.55,3.36-34.69,6.88-5.25,1.66-10.47,2.86-15.61,4.84-2.66,1.02-4.23,2.37-6.18-.21-1.76-2.32-3.33-4.93-4.53-7.58-1.25-2.75-3.08-5.78-3.86-8.68-.85-3.16,2.11-3.2,4.61-3.88,3.51-.95,6.98-2.22,10.54-2.98,3.31-.71,6.73-.99,10.06-1.66,13.33-2.67,26.55-3.8,40.08-4.42Z"/>
      <path class="cls-1" d="M169.41,70.49c-11.9-1.07-23.84-1.99-35.71-3.34-5.67-.64-11.37-1.93-16.98-3-5.96-1.14-11.9-1.76-17.9-2.53-11.67-1.51-23.17-4.45-34.95-5.07-11.79-.62-23.62-2.75-35.35-4.05-5.97-.66-11.96-1.35-17.97-1.61-1.48-.06-3.75.39-4.13-1.29-.36-1.61,2.44-5.94,3.21-7.3,1.2-2.12,2.68-4.04,3.87-6.16,1.09-1.93,2.5-4.83,4.47-6.03,2.05-1.24,5.44.12,7.61.55,2.96.58,5.91,1.17,8.87,1.79,11.58,2.41,23.16,4.15,34.67,6.97,11.71,2.86,23.6,5.3,35.12,8.97,6.13,1.95,12.4,3.31,18.52,5.22,3.17.99,6.28,2.21,9.46,3.16,3.03.9,6.08,1.38,9.09,2.43,6.2,2.18,12.58,3.66,18.78,5.83,2.86,1,5.69,2.1,8.59,2.98.77.23,3.63.44,3.76,1.56.16,1.36-2.15.9-3.03.9,0,.02,0,.03,0,.05Z"/>
      <path class="cls-1" d="M100.34,140.38c-10.97-.89-22.28,3.37-32.84,5.69-5.3,1.16-10.23,3.94-15.33,5.78-1.9.69-3.72,2.39-5.65,2.8-2.26.48-3.77-1.4-5.64-2.4-4.2-2.25-8.29-5.16-11.86-8.35-1.33-1.19-3.47-2.52-2.35-3.94.52-.65,2.8-1.15,3.63-1.56,1.17-.58,2.35-1.15,3.57-1.63,10.07-3.95,20.71-6.61,31.21-9.12,10.79-2.57,22.71-2.73,33.75-2.91,11.41-.19,23.14.48,34.38-1.75,5.06-1.01,9.81-2.88,14.54-4.87,2.18-.92,4.23-2.05,6.1-3.49,1.81-1.39,3.62-1.74,5.35-3.24,1.04-.89,10.52-8.33,11.06-7.99,1.32.86-7.2,8.54-7.99,9.31-7.81,7.57-15.58,16.71-25.87,20.83-2.68,1.08-5.49,1.38-8.26,2.13-2.96.8-5.76,1.73-8.78,2.27-6.28,1.12-12.63,2.34-19.03,2.45Z"/>
      <path class="cls-1" d="M64.58,0c4.33.74,8.61,2.88,12.52,4.82,4.44,2.21,9.08,3.92,13.53,6.14,4.08,2.04,8.23,4.02,12.35,5.95,4.56,2.14,8.94,4.63,13.5,6.77,4.1,1.93,7.94,4.23,12.01,6.12,2.08.96,4.01,2.53,5.99,3.68,2.45,1.42,5.01,2.65,7.38,4.2,8.33,5.47,17.1,10.34,25.11,16.33.6.45,4.21,2.95,3.39,4-.67.87-4.3-.96-5.07-1.26-4.79-1.86-9.36-4.19-14.19-5.97-8.83-3.26-17.23-7.63-26.09-10.87-9.39-3.43-18.68-7.32-28.2-10.36-9.83-3.15-19.65-6.21-29.45-9.42-5.49-1.79-11.09-3.06-16.65-4.58-1.61-.44-13.04-3.01-13.05-3.93,0-.41,5.27-3.26,5.9-3.6,2.13-1.13,4.34-1.89,6.43-3.11,4.26-2.49,9.66-4.34,14.58-4.91Z"/>
      <path class="cls-1" d="M158.09,128.49c-3.98,5.07-7.83,9.78-12.39,14.33-5.05,5.05-11.28,8.24-17.17,12.1-5.36,3.51-12.69,6.08-18.9,7.69-6.92,1.79-14.81,2.28-21.93,2.42-3.44.07-6.92-.01-10.34-.32-1.59-.15-3.17-.38-4.74-.68-1.11-.21-4.8-.26-5.66-.86-1.16-.81-.45-.48.43-1.08,1.16-.8,3.08-1.45,4.37-1.92,3.43-1.23,6.96-1.51,10.46-2.33,6.52-1.53,12.31-3.1,18.9-4.29,3.26-.59,7.07-1.03,10.17-1.87,3.3-.89,6.73-1.59,9.99-2.59,3.79-1.16,8.12-2.12,11.81-3.47,3.7-1.35,7.04-3.04,10.54-4.83,2.92-1.49,7.39-5.63,8.55-6.74,1.31-1.26,4.47-4.49,5.9-5.56Z"/>
      <path class="cls-1" d="M161.03,38.91c-3.92-3.58-8.23-6.91-12.43-10.17-4.71-3.66-9.46-7.55-14.37-10.94-4.13-2.85-8.07-5.91-12.17-8.83-2.26-1.61-4.71-3.01-7.06-4.49-1.22-.77-3.85-1.99-1.58-2.75,3.98-1.32,9.55,3.44,12.89,5,4.71,2.2,9.09,5.08,13.31,8.14,4.55,3.3,8.89,6.94,12.86,10.92,1.94,1.94,3.74,3.92,5.19,6.26,1.05,1.7,3.52,4.82,3.35,6.85Z"/>
    </g>
  </g>
</svg>